<svg width="14" height="14" viewBox="0 0 14 14" fill="none" xmlns="http://www.w3.org/2000/svg">
<g clip-path="url(#clip0_160_3127)">
<path d="M7.54184 1.00782C7.27954 1.00265 7.01562 1 6.75 1C5.24414 1 3.77162 1.07981 2.3622 1.22784C1.5279 1.31547 0.850198 1.94217 0.730308 2.77244C0.578721 3.82223 0.5 4.91871 0.5 6.03305C0.5 7.10938 0.578692 8.155 0.720278 9.17207C0.844012 10.0609 1.59499 10.7145 2.48853 10.7976C2.56052 10.8043 2.63265 10.8111 2.70493 10.8178C2.93013 10.8388 3.15672 10.86 3.38462 10.8806V13.5C4.79019 12.8687 5.59436 12.2724 6.64324 11.0659C6.67881 11.066 6.71439 11.0661 6.75 11.0661C8.23748 11.0661 9.67775 10.9762 11.0748 10.8343C11.9395 10.7464 12.6396 10.0896 12.7611 9.229C12.8893 8.32119 12.9765 7.38951 12.9959 6.43432" stroke="#1B1B1B" stroke-linecap="round" stroke-linejoin="round"/>
<path d="M9.25397 2.51253C9.95248 1.81402 10.0838 0.5 10.3751 0.5C10.6663 0.5 10.7977 1.81402 11.4962 2.51253C12.1947 3.21104 13.5 3.28502 13.5 3.625C13.5 3.96498 12.1947 4.03896 11.4962 4.73747C10.7977 5.43598 10.6663 6.75 10.3751 6.75C10.0838 6.75 9.95248 5.43598 9.25397 4.73747C8.55546 4.03896 7.25012 3.96498 7.25012 3.625C7.25012 3.28502 8.55546 3.21104 9.25397 2.51253Z" stroke="black" stroke-linecap="round" stroke-linejoin="round"/>
</g>
<defs>
<clipPath id="clip0_160_3127">
<rect width="14" height="14" fill="white"/>
</clipPath>
</defs>
</svg>
