<svg width="48" height="48" viewBox="0 0 48 48" fill="none" xmlns="http://www.w3.org/2000/svg">
<circle cx="24" cy="24" r="24" fill="#00B2FF"/>
<path fill-rule="evenodd" clip-rule="evenodd" d="M39.4256 15.7786C39.589 15.8441 39.7289 15.957 39.8275 16.1027C39.9261 16.2485 39.9788 16.4204 39.9788 16.5964C39.9788 16.7724 39.9261 16.9443 39.8275 17.09C39.7289 17.2358 39.589 17.3487 39.4256 17.4142L24.9262 23.2614C24.3577 23.4904 23.7217 23.4891 23.1559 23.2573L12.3925 18.8517V29.4966C12.8999 29.7227 13.3308 30.0914 13.6327 30.5578C13.9345 31.0242 14.0943 31.5682 14.0927 32.1238V36.7746C14.0927 36.9533 14.0218 37.1246 13.8954 37.2509C13.7691 37.3773 13.5978 37.4483 13.4191 37.4483H9.01484C8.83618 37.4483 8.66483 37.3773 8.5385 37.2509C8.41217 37.1246 8.3412 36.9533 8.3412 36.7746V32.1238C8.3412 30.9476 9.03774 29.9412 10.0428 29.4953V17.8884L8.87472 17.4115C8.71276 17.3451 8.57422 17.232 8.47672 17.0866C8.37921 16.9412 8.32715 16.7701 8.32715 16.595C8.32715 16.42 8.37921 16.2489 8.47672 16.1035C8.57422 15.9581 8.71276 15.845 8.87472 15.7786L23.1559 9.93409C23.7217 9.70236 24.3577 9.70101 24.9262 9.93005L39.4256 15.7786ZM25.585 24.897L33.4666 21.7188V26.8883C33.4696 27.0649 33.4288 27.2394 33.3479 27.3965C33.2671 27.5535 33.1486 27.6881 33.0032 27.7883C31.8068 28.5912 28.3995 30.5825 24.0437 30.5825C19.6866 30.5825 16.4357 28.5885 15.3053 27.7883C15.1678 27.6879 15.0565 27.556 14.9807 27.4035C14.905 27.2511 14.867 27.0827 14.8701 26.9125V21.7713L22.4876 24.8889C23.4801 25.2952 24.5919 25.2981 25.5864 24.897H25.585Z" fill="white"/>
</svg>
