<svg width="22" height="22" viewBox="0 0 22 22" fill="none" xmlns="http://www.w3.org/2000/svg">
<path d="M18.574 16.1021C18.8273 12.0597 18.8136 9.02426 18.5161 4.87579C18.3793 2.97119 16.7767 1.51465 14.8672 1.51465C12.8279 1.51465 11.1747 3.16786 11.1747 5.2072V16.7763C11.1747 18.8247 9.51402 20.4854 7.46554 20.4854C5.56078 20.4854 3.95486 19.0429 3.81668 17.1432C3.5394 13.3307 3.55443 10.3043 3.80075 6.07261" stroke="currentColor" stroke-width="1.57" stroke-linecap="round" stroke-linejoin="round"/>
<path d="M3.70357 5.89251C5.10449 5.89251 5.8925 5.10449 5.8925 3.70358C5.8925 2.30266 5.10449 1.51465 3.70357 1.51465C2.30266 1.51465 1.51464 2.30266 1.51464 3.70358C1.51464 5.10449 2.30266 5.89251 3.70357 5.89251Z" stroke="currentColor" stroke-width="1.57" stroke-linecap="round" stroke-linejoin="round"/>
<path d="M18.2964 20.4853C19.6973 20.4853 20.4854 19.6973 20.4854 18.2964C20.4854 16.8954 19.6973 16.1074 18.2964 16.1074C16.8955 16.1074 16.1075 16.8954 16.1075 18.2964C16.1075 19.6973 16.8955 20.4853 18.2964 20.4853Z" stroke="currentColor" stroke-width="1.57" stroke-linecap="round" stroke-linejoin="round"/>
</svg>
