<svg width="22" height="22" viewBox="0 0 22 22" fill="none" xmlns="http://www.w3.org/2000/svg">
<path d="M5.50558 1.87939C7.82631 1.87939 9.13172 3.1848 9.13172 5.50552C9.13172 7.82625 7.82631 9.13165 5.50558 9.13165C3.18487 9.13165 1.87946 7.82625 1.87946 5.50552C1.87946 3.1848 3.18487 1.87939 5.50558 1.87939Z" stroke="currentColor" stroke-width="1.57" stroke-linecap="round" stroke-linejoin="round"/>
<path d="M5.50558 12.8682C7.82631 12.8682 9.13172 14.1736 9.13172 16.4942C9.13172 18.8149 7.82631 20.1204 5.50558 20.1204C3.18487 20.1204 1.87946 18.8149 1.87946 16.4942C1.87946 14.1736 3.18487 12.8682 5.50558 12.8682Z" stroke="currentColor" stroke-width="1.57" stroke-linecap="round" stroke-linejoin="round"/>
<path d="M16.4944 1.87939C18.8151 1.87939 20.1205 3.1848 20.1205 5.50552C20.1205 7.82625 18.8151 9.13165 16.4944 9.13165C14.1737 9.13165 12.8683 7.82625 12.8683 5.50552C12.8683 3.1848 14.1737 1.87939 16.4944 1.87939Z" stroke="currentColor" stroke-width="1.57" stroke-linecap="round" stroke-linejoin="round"/>
<path d="M16.4944 12.8682C18.8151 12.8682 20.1205 14.1736 20.1205 16.4942C20.1205 18.8149 18.8151 20.1204 16.4944 20.1204C14.1737 20.1204 12.8683 18.8149 12.8683 16.4942C12.8683 14.1736 14.1737 12.8682 16.4944 12.8682Z" stroke="currentColor" stroke-width="1.57" stroke-linecap="round" stroke-linejoin="round"/>
</svg>
