<svg width="22" height="22" viewBox="0 0 22 22" fill="none" xmlns="http://www.w3.org/2000/svg">
<path d="M11.7907 2.2558C11.4079 2.24825 11.0228 2.24438 10.6352 2.24438C8.4377 2.24438 6.28887 2.36085 4.23213 2.57687C3.01464 2.70475 2.02568 3.61928 1.85073 4.83088C1.62952 6.36282 1.51464 7.9629 1.51464 9.58904C1.51464 11.1597 1.62948 12.6856 1.83609 14.1698C2.01666 15.4668 3.11255 16.4206 4.41648 16.5419C4.52153 16.5517 4.62679 16.5616 4.73227 16.5714C5.0609 16.602 5.39156 16.6329 5.72413 16.663V20.4855C7.77526 19.5642 8.94877 18.694 10.4794 16.9334C10.5313 16.9336 10.5832 16.9337 10.6352 16.9337C12.8058 16.9337 14.9076 16.8025 16.9463 16.5954C18.2081 16.4672 19.2298 15.5087 19.4071 14.2528C19.5942 12.9281 19.7214 11.5685 19.7497 10.1746" stroke="currentColor" stroke-width="1.57" stroke-linecap="round" stroke-linejoin="round"/>
<path d="M14.2892 4.4515C15.3085 3.43218 15.5001 1.51465 15.9252 1.51465C16.3502 1.51465 16.5419 3.43218 17.5612 4.4515C18.5806 5.47083 20.4854 5.57879 20.4854 6.07492C20.4854 6.57104 18.5806 6.679 17.5612 7.69833C16.5419 8.71765 16.3502 10.6352 15.9252 10.6352C15.5001 10.6352 15.3085 8.71765 14.2892 7.69833C13.2699 6.679 11.365 6.57104 11.365 6.07492C11.365 5.57879 13.2699 5.47083 14.2892 4.4515Z" stroke="currentColor" stroke-width="1.57" stroke-linecap="round" stroke-linejoin="round"/>
</svg>
