<svg width="22" height="22" viewBox="0 0 22 22" fill="none" xmlns="http://www.w3.org/2000/svg">
<path fill-rule="evenodd" clip-rule="evenodd" d="M20.5758 1.42429C20.8821 0.700738 20.8818 0.700598 20.8815 0.700449L20.8805 0.700109L20.8786 0.699279L20.8731 0.697029L20.8566 0.690245C20.8431 0.684741 20.8246 0.677311 20.8013 0.668214C20.7545 0.650023 20.6885 0.625136 20.6049 0.595622C20.4377 0.536637 20.1991 0.458896 19.9026 0.37914C19.3111 0.220075 18.4792 0.0504703 17.5156 0.00932619C15.5864 -0.0730469 13.0833 0.361539 10.9729 2.46878C9.9786 3.42994 8.9798 4.92038 8.0027 6.53221C7.48377 7.38823 6.93405 8.34295 6.38504 9.29648C5.91864 10.1065 5.45276 10.9157 5.00665 11.6627C4.78648 12.0314 4.90312 12.5086 5.26856 12.7341L5.30838 12.7587C6.92023 13.7536 8.27541 15.1137 9.26444 16.7291C9.48946 17.0967 9.96859 17.2144 10.3383 16.9928C11.1405 16.5123 11.9695 16.0349 12.7974 15.5582L12.9258 15.4842C13.7936 14.9844 14.6586 14.4852 15.4736 13.9915C17.0833 13.0165 18.57 12.0216 19.5313 11.0272C21.6386 8.91674 22.0731 6.41371 21.9907 4.48445C21.9496 3.5208 21.78 2.689 21.621 2.0975C21.5411 1.8009 21.4634 1.5624 21.4044 1.39519C21.3749 1.31153 21.3501 1.24552 21.3318 1.19882C21.3227 1.17546 21.3153 1.15692 21.3098 1.14338L21.3031 1.12686L21.3007 1.12147L21.2999 1.11949C21.2998 1.11914 21.2993 1.118 20.5758 1.42429ZM20.5758 1.42429L20.8815 0.700449C21.0694 0.78004 21.2198 0.929984 21.2993 1.118L20.5758 1.42429ZM11.8568 21.4437L10.5105 19.0086C10.7984 18.9469 11.0812 18.8377 11.3478 18.678C12.133 18.2075 12.9472 17.7386 13.7778 17.2603L13.9061 17.1864C14.7717 16.6879 15.6549 16.1783 16.4914 15.6716C16.7511 15.5143 17.0129 15.3534 17.2742 15.1893C17.0956 17.6858 15.7894 20.2502 12.9091 21.7594C12.5308 21.9576 12.0634 21.8174 11.8568 21.4437ZM3.32019 10.6557C3.16115 10.922 3.05231 11.2045 2.99099 11.4921L0.562448 10.1493C0.189225 9.94299 0.0487591 9.47659 0.245948 9.09845C1.7503 6.21354 4.31291 4.90589 6.80881 4.72618C6.64345 4.9891 6.48144 5.25256 6.32297 5.51397C5.79254 6.38896 5.23372 7.35952 4.68941 8.30484L4.68278 8.31638C4.21467 9.12937 3.75681 9.92448 3.32019 10.6557ZM3.99221 14.4992C4.45519 14.4911 4.91507 14.5762 5.34441 14.7496C5.77376 14.9231 6.16377 15.1812 6.49119 15.5086C6.81862 15.8361 7.07673 16.2261 7.25015 16.6554C7.42357 17.0847 7.50873 17.5445 7.50057 18.0076C7.4924 18.4706 7.39106 18.9271 7.20261 19.3501C7.01503 19.7711 6.74498 20.1501 6.40843 20.4649C6.04485 20.8133 5.4761 21.0865 4.93721 21.3007C4.36565 21.5278 3.70896 21.7327 3.08493 21.9062C1.2383 22.4196 -0.419782 20.7616 0.0935963 18.9148C0.267082 18.2908 0.471984 17.6341 0.699083 17.0626C0.913201 16.5237 1.1865 15.955 1.53486 15.5914C1.84965 15.2548 2.22873 14.9848 2.64971 14.7972C3.07266 14.6087 3.52926 14.5074 3.99221 14.4992ZM14.8008 5.81029C14.4172 6.19385 14.4172 6.81571 14.8008 7.19926C15.1843 7.5828 15.8062 7.5828 16.1898 7.19926L16.7799 6.60919C17.1633 6.22564 17.1633 5.60379 16.7799 5.22024C16.3963 4.83668 15.7745 4.83668 15.3909 5.22024L14.8008 5.81029Z" fill="currentColor"/>
</svg>
